<svg width="30" height="30" viewBox="0 0 30 30" fill="none" xmlns="http://www.w3.org/2000/svg">
<path d="M28.125 14.0625C28.1269 13.1238 27.8938 12.1994 27.447 11.3738C27.0002 10.5482 26.3538 9.84757 25.5668 9.33574C24.7799 8.82391 23.8773 8.51717 22.9415 8.4435C22.0056 8.36982 21.0662 8.53155 20.2088 8.91393C19.3514 9.29631 18.6034 9.88719 18.0329 10.6327C17.4624 11.3782 17.0875 12.2547 16.9425 13.1822C16.7975 14.1097 16.8869 15.0587 17.2026 15.9428C17.5183 16.8269 18.0503 17.6179 18.75 18.2438V27.1875L22.5 25.4213L26.25 27.1875V18.2438C26.8394 17.7182 27.3111 17.074 27.6342 16.3535C27.9573 15.6329 28.1246 14.8522 28.125 14.0625ZM24.375 24.2325L22.5 23.3494L20.625 24.2325V19.3594C21.8367 19.797 23.1633 19.797 24.375 19.3594V24.2325ZM22.5 17.8125C21.7583 17.8125 21.0333 17.5926 20.4166 17.1805C19.7999 16.7685 19.3193 16.1828 19.0354 15.4976C18.7516 14.8124 18.6774 14.0584 18.822 13.3309C18.9667 12.6035 19.3239 11.9353 19.8483 11.4109C20.3728 10.8864 21.041 10.5293 21.7684 10.3846C22.4958 10.2399 23.2498 10.3141 23.9351 10.598C24.6203 10.8818 25.2059 11.3624 25.618 11.9791C26.0301 12.5958 26.25 13.3208 26.25 14.0625C26.2487 15.0567 25.8533 16.0098 25.1503 16.7128C24.4473 17.4158 23.4942 17.8113 22.5 17.8125Z" fill="black"/>
<path d="M13.125 1.875C11.6337 1.87674 10.204 2.46993 9.14944 3.52444C8.09493 4.57896 7.50174 6.00869 7.5 7.5V13.125H5.625C5.12787 13.1255 4.65125 13.3232 4.29972 13.6747C3.9482 14.0262 3.7505 14.5029 3.75 15V26.25C3.7505 26.7471 3.9482 27.2238 4.29972 27.5753C4.65125 27.9268 5.12787 28.1245 5.625 28.125H15.9375V26.25H5.625V15H14.0625V13.125H9.375V7.5C9.37407 6.57004 9.71871 5.6729 10.342 4.98275C10.9654 4.2926 11.8229 3.85868 12.7481 3.76522C13.6734 3.67176 14.6004 3.92543 15.3491 4.47698C16.0979 5.02854 16.6149 5.83863 16.8 6.75L18.6375 6.375C18.3754 5.10584 17.6843 3.96563 16.6803 3.14611C15.6764 2.32658 14.4209 1.87772 13.125 1.875Z" fill="black"/>
</svg>
