<svg width="30" height="30" viewBox="0 0 30 30" fill="none" xmlns="http://www.w3.org/2000/svg">
<g clip-path="url(#clip0_395_96)">
<path d="M15 1.66663C12.3629 1.66663 9.78502 2.44861 7.59236 3.9137C5.39971 5.37878 3.69074 7.46117 2.68157 9.89751C1.6724 12.3339 1.40836 15.0148 1.92283 17.6012C2.4373 20.1876 3.70718 22.5634 5.57188 24.4281C7.43658 26.2928 9.81235 27.5626 12.3988 28.0771C14.9852 28.5916 17.6661 28.3275 20.1024 27.3184C22.5388 26.3092 24.6211 24.6002 26.0862 22.4076C27.5513 20.2149 28.3333 17.637 28.3333 15C28.3333 11.4637 26.9285 8.07235 24.4281 5.57187C21.9276 3.07138 18.5362 1.66663 15 1.66663ZM15 26.6666C12.6925 26.6666 10.4369 25.9824 8.51831 24.7004C6.59974 23.4185 5.10439 21.5964 4.22137 19.4646C3.33835 17.3328 3.10731 14.987 3.55747 12.7239C4.00763 10.4608 5.11877 8.38199 6.75039 6.75038C8.382 5.11877 10.4608 4.00763 12.7239 3.55746C14.987 3.1073 17.3328 3.33834 19.4646 4.22136C21.5964 5.10439 23.4185 6.59973 24.7004 8.51831C25.9824 10.4369 26.6666 12.6925 26.6666 15C26.6666 18.0942 25.4375 21.0616 23.2495 23.2495C21.0616 25.4375 18.0942 26.6666 15 26.6666Z" fill="black"/>
<path d="M15.2417 7.43334C14.3387 7.41841 13.4434 7.60256 12.6196 7.97271C11.7958 8.34286 11.0636 8.88991 10.475 9.575C10.3933 9.65077 10.3275 9.74218 10.2817 9.84381C10.2359 9.94544 10.211 10.0552 10.2084 10.1667C10.2083 10.2695 10.2289 10.3713 10.269 10.466C10.3091 10.5606 10.3678 10.6463 10.4417 10.7178C10.5156 10.7893 10.603 10.8453 10.699 10.8823C10.7949 10.9193 10.8973 10.9367 11 10.9333C11.2202 10.9279 11.4307 10.8419 11.5917 10.6917C12.0371 10.1697 12.5903 9.75049 13.2132 9.46278C13.8361 9.17506 14.5139 9.02571 15.2 9.025C17.1667 9.025 18.3917 10.2917 18.3917 11.8667V11.9083C18.3917 13.75 16.925 14.775 14.6084 14.95C14.5146 14.9536 14.4226 14.977 14.3384 15.0186C14.2543 15.0603 14.1799 15.1192 14.1201 15.1916C14.0603 15.264 14.0165 15.3481 13.9915 15.4386C13.9665 15.5291 13.9609 15.6239 13.975 15.7167C13.975 15.7167 13.975 17.65 13.975 18.0083C13.9958 18.2146 14.0926 18.4057 14.2467 18.5444C14.4008 18.6831 14.6011 18.7594 14.8084 18.7583H14.9C15.1063 18.7376 15.2974 18.6407 15.4361 18.4866C15.5748 18.3326 15.6511 18.1323 15.65 17.925V16.2083C18.15 15.8583 20.175 14.5417 20.175 11.8083V11.7667C20.15 9.26667 18.2 7.43334 15.2417 7.43334Z" fill="black"/>
<path d="M14.8167 22.875C15.392 22.875 15.8584 22.4086 15.8584 21.8333C15.8584 21.258 15.392 20.7916 14.8167 20.7916C14.2414 20.7916 13.775 21.258 13.775 21.8333C13.775 22.4086 14.2414 22.875 14.8167 22.875Z" fill="black"/>
</g>
<defs>
<clipPath id="clip0_395_96">
<rect width="30" height="30" fill="white"/>
</clipPath>
</defs>
</svg>
