<svg width="35" height="35" viewBox="0 0 35 35" fill="none" xmlns="http://www.w3.org/2000/svg">
<path d="M25.7032 24.0625H25.1563V21.875H25.7032C27.0085 21.9272 28.2812 21.4587 29.2411 20.5726C30.2011 19.6865 30.7697 18.4554 30.8219 17.15C30.8741 15.8446 30.4056 14.572 29.5195 13.612C28.6334 12.6521 27.4023 12.0835 26.0969 12.0312H25.1563L25.0469 11.1344C24.8042 9.29298 23.9005 7.60258 22.504 6.37806C21.1076 5.15354 19.3136 4.4784 17.4563 4.4784C15.599 4.4784 13.805 5.15354 12.4085 6.37806C11.012 7.60258 10.1083 9.29298 9.86565 11.1344L9.84378 12.0312H8.90315C7.59779 12.0835 6.36663 12.6521 5.48053 13.612C4.59442 14.572 4.12594 15.8446 4.17815 17.15C4.23037 18.4554 4.799 19.6865 5.75895 20.5726C6.7189 21.4587 7.99154 21.9272 9.2969 21.875H9.84378V24.0625H9.2969C7.54297 24.0514 5.85505 23.3923 4.55767 22.212C3.26028 21.0316 2.44502 19.4134 2.26861 17.6683C2.0922 15.9232 2.56711 14.1745 3.60202 12.7584C4.63694 11.3423 6.1588 10.3588 7.87503 9.99686C8.34721 7.79462 9.56032 5.8209 11.3119 4.40503C13.0636 2.98917 15.2477 2.2168 17.5 2.2168C19.7523 2.2168 21.9365 2.98917 23.6881 4.40503C25.4397 5.8209 26.6528 7.79462 27.125 9.99686C28.8413 10.3588 30.3631 11.3423 31.398 12.7584C32.4329 14.1745 32.9079 15.9232 32.7314 17.6683C32.555 19.4134 31.7398 21.0316 30.4424 22.212C29.145 23.3923 27.4571 24.0514 25.7032 24.0625Z" fill="black"/>
<path d="M18.5938 28.6234V15.3125H16.4062V28.6234L13.5734 25.8016L12.0312 27.3438L17.5 32.8125L22.9688 27.3438L21.4266 25.8016L18.5938 28.6234Z" fill="black"/>
</svg>
