<svg width="24" height="24" viewBox="0 0 24 24" fill="none" xmlns="http://www.w3.org/2000/svg">
<path d="M7.11996 21.1201C7.23608 21.2365 7.37402 21.3288 7.52588 21.3919C7.67774 21.4549 7.84054 21.4873 8.00496 21.4873C8.16938 21.4873 8.33218 21.4549 8.48405 21.3919C8.63591 21.3288 8.77385 21.2365 8.88996 21.1201L17.3 12.7101C17.3927 12.6176 17.4662 12.5077 17.5164 12.3867C17.5666 12.2657 17.5924 12.136 17.5924 12.0051C17.5924 11.8741 17.5666 11.7444 17.5164 11.6234C17.4662 11.5025 17.3927 11.3926 17.3 11.3001L8.88996 2.89007C8.39996 2.40007 7.60996 2.40007 7.11996 2.89007C6.62996 3.38007 6.62996 4.17007 7.11996 4.66007L14.46 12.0001L7.10996 19.3501C6.62996 19.8401 6.62996 20.6301 7.11996 21.1201Z" fill="#777777"/>
</svg>
