<svg width="25" height="25" viewBox="0 0 25 25" fill="none" xmlns="http://www.w3.org/2000/svg">
<path d="M16.9859 1.58593C17.1869 1.63612 17.3597 1.76406 17.4664 1.94162C17.573 2.11918 17.6048 2.33182 17.5547 2.53281L17.1641 4.09531C17.1412 4.19688 17.0983 4.29287 17.0378 4.37762C16.9773 4.46237 16.9005 4.53417 16.8119 4.58881C16.7233 4.64345 16.6246 4.67983 16.5217 4.6958C16.4188 4.71177 16.3138 4.70701 16.2128 4.68181C16.1117 4.6566 16.0168 4.61146 15.9335 4.54904C15.8501 4.48661 15.7801 4.40816 15.7275 4.31829C15.675 4.22842 15.6409 4.12895 15.6273 4.02572C15.6137 3.92249 15.6209 3.81759 15.6484 3.71718L16.0391 2.15468C16.0893 1.95373 16.2172 1.78093 16.3948 1.67428C16.5723 1.56762 16.785 1.53585 16.9859 1.58593ZM21.6469 3.35312C21.7196 3.42569 21.7774 3.5119 21.8167 3.60682C21.8561 3.70173 21.8764 3.80348 21.8764 3.90624C21.8764 4.009 21.8561 4.11076 21.8167 4.20567C21.7774 4.30058 21.7196 4.3868 21.6469 4.45937L20.0844 6.02187C20.0117 6.0944 19.9255 6.15192 19.8307 6.19114C19.7358 6.23035 19.6341 6.2505 19.5315 6.25043C19.4288 6.25035 19.3272 6.23006 19.2324 6.19071C19.1376 6.15136 19.0514 6.09372 18.9789 6.02109C18.9064 5.94845 18.8489 5.86224 18.8096 5.76737C18.7704 5.6725 18.7503 5.57084 18.7504 5.46819C18.7504 5.36554 18.7707 5.26391 18.8101 5.16909C18.8494 5.07428 18.9071 4.98815 18.9797 4.91562L20.5422 3.35312C20.6887 3.20666 20.8874 3.12438 21.0945 3.12438C21.3017 3.12438 21.5004 3.20666 21.6469 3.35312ZM9.81876 20.3625C10.211 21.0147 10.8279 21.5014 11.5535 21.7311C12.2791 21.9608 13.0636 21.9179 13.7598 21.6102C14.4559 21.3026 15.0159 20.7515 15.3346 20.0603C15.6533 19.3692 15.7088 18.5854 15.4906 17.8562L9.81876 20.3625ZM8.38126 20.9984L6.82188 21.6875C6.41873 21.8661 5.971 21.9187 5.53742 21.8384C5.10383 21.7581 4.70464 21.5486 4.3922 21.2375L3.7672 20.6125C3.45586 20.3025 3.24553 19.9057 3.16382 19.474C3.08212 19.0423 3.13286 18.596 3.30938 18.1937L9.35782 4.42968C9.50129 4.1048 9.72171 3.81974 10 3.59913C10.2783 3.37852 10.6062 3.22898 10.9552 3.16345C11.3043 3.09792 11.664 3.11835 12.0034 3.223C12.3428 3.32764 12.6516 3.51334 12.9031 3.76406L21.2344 12.0703C21.4854 12.3206 21.6715 12.6284 21.7767 12.9669C21.8819 13.3055 21.9029 13.6645 21.8379 14.013C21.773 14.3615 21.624 14.6889 21.4039 14.9668C21.1839 15.2447 20.8993 15.4647 20.575 15.6078L16.9266 17.2203C17.3122 18.3318 17.2658 19.5477 16.7966 20.6265C16.3274 21.7054 15.4696 22.5683 14.3936 23.0441C13.3175 23.5198 12.102 23.5735 10.9882 23.1946C9.87441 22.8156 8.94385 22.0317 8.38126 20.9984ZM22.6563 7.81249H21.0938C20.8866 7.81249 20.6878 7.8948 20.5413 8.04132C20.3948 8.18783 20.3125 8.38654 20.3125 8.59374C20.3125 8.80094 20.3948 8.99966 20.5413 9.14617C20.6878 9.29268 20.8866 9.37499 21.0938 9.37499H22.6563C22.8635 9.37499 23.0622 9.29268 23.2087 9.14617C23.3552 8.99966 23.4375 8.80094 23.4375 8.59374C23.4375 8.38654 23.3552 8.18783 23.2087 8.04132C23.0622 7.8948 22.8635 7.81249 22.6563 7.81249ZM10.7891 5.05937L4.73907 18.8219C4.68905 18.9357 4.67467 19.062 4.69782 19.1842C4.72097 19.3063 4.78056 19.4186 4.86876 19.5062L5.49532 20.1312C5.58461 20.22 5.6986 20.2797 5.82239 20.3025C5.94618 20.3254 6.07398 20.3104 6.18907 20.2594L19.9422 14.1781C20.0341 14.1377 20.1147 14.0754 20.1771 13.9968C20.2395 13.9181 20.2817 13.8255 20.3002 13.7268C20.3187 13.6281 20.3128 13.5265 20.2831 13.4306C20.2534 13.3347 20.2007 13.2475 20.1297 13.1766L11.8016 4.87031C11.7299 4.79902 11.642 4.7462 11.5454 4.71637C11.4488 4.68653 11.3464 4.68058 11.2469 4.69901C11.1475 4.71745 11.0541 4.75973 10.9746 4.82222C10.8951 4.88471 10.832 4.96555 10.7906 5.05781L10.7891 5.05937Z" fill="black"/>
</svg>
