<svg width="35" height="32" viewBox="0 0 35 32" fill="none" xmlns="http://www.w3.org/2000/svg">
<path fill-rule="evenodd" clip-rule="evenodd" d="M5.25 7.87505C5.25 7.45733 5.43437 7.05673 5.76256 6.76136C6.09075 6.46599 6.53587 6.30005 7 6.30005H28C28.4641 6.30005 28.9093 6.46599 29.2374 6.76136C29.5656 7.05673 29.75 7.45733 29.75 7.87505C29.75 8.29276 29.5656 8.69337 29.2374 8.98874C28.9093 9.28411 28.4641 9.45005 28 9.45005H7C6.53587 9.45005 6.09075 9.28411 5.76256 8.98874C5.43437 8.69337 5.25 8.29276 5.25 7.87505ZM5.25 15.75C5.25 15.3323 5.43437 14.9317 5.76256 14.6364C6.09075 14.341 6.53587 14.175 7 14.175H28C28.4641 14.175 28.9093 14.341 29.2374 14.6364C29.5656 14.9317 29.75 15.3323 29.75 15.75C29.75 16.1678 29.5656 16.5684 29.2374 16.8637C28.9093 17.1591 28.4641 17.325 28 17.325H7C6.53587 17.325 6.09075 17.1591 5.76256 16.8637C5.43437 16.5684 5.25 16.1678 5.25 15.75ZM5.25 23.625C5.25 23.2073 5.43437 22.8067 5.76256 22.5114C6.09075 22.216 6.53587 22.05 7 22.05H28C28.4641 22.05 28.9093 22.216 29.2374 22.5114C29.5656 22.8067 29.75 23.2073 29.75 23.625C29.75 24.0428 29.5656 24.4434 29.2374 24.7387C28.9093 25.0341 28.4641 25.2 28 25.2H7C6.53587 25.2 6.09075 25.0341 5.76256 24.7387C5.43437 24.4434 5.25 24.0428 5.25 23.625Z" fill="#242424"/>
</svg>
