<svg width="24" height="24" viewBox="0 0 24 24" fill="none" xmlns="http://www.w3.org/2000/svg">
<g clip-path="url(#clip0_372_6)">
<path d="M17.6128 15.5164C19.0653 13.5344 19.7158 11.0771 19.4343 8.63612C19.1528 6.19511 17.9599 3.9504 16.0945 2.35109C14.229 0.751776 11.8284 -0.0841998 9.37307 0.01041C6.91771 0.10502 4.5886 1.12324 2.85172 2.86136C1.11485 4.59947 0.0982967 6.92931 0.00544392 9.38475C-0.0874088 11.8402 0.750285 14.2401 2.35093 16.1045C3.95158 17.9688 6.19714 19.16 8.63835 19.4398C11.0796 19.7195 13.5364 19.0673 15.5173 17.6134H15.5158C15.5608 17.6734 15.6088 17.7304 15.6628 17.7859L21.4378 23.5609C21.7191 23.8424 22.1006 24.0006 22.4985 24.0007C22.8964 24.0008 23.2781 23.8429 23.5596 23.5616C23.841 23.2804 23.9992 22.8988 23.9994 22.5009C23.9995 22.103 23.8416 21.7214 23.5603 21.4399L17.7853 15.6649C17.7317 15.6106 17.674 15.5605 17.6128 15.5149V15.5164ZM17.9998 9.75039C17.9998 10.8338 17.7864 11.9066 17.3718 12.9075C16.9572 13.9085 16.3495 14.8179 15.5835 15.584C14.8174 16.3501 13.9079 16.9578 12.907 17.3724C11.906 17.787 10.8332 18.0004 9.74982 18.0004C8.66642 18.0004 7.59362 17.787 6.59268 17.3724C5.59175 16.9578 4.68227 16.3501 3.91619 15.584C3.15011 14.8179 2.54242 13.9085 2.12781 12.9075C1.71321 11.9066 1.49982 10.8338 1.49982 9.75039C1.49982 7.56236 2.36902 5.46394 3.91619 3.91676C5.46337 2.36959 7.56178 1.5004 9.74982 1.5004C11.9379 1.5004 14.0363 2.36959 15.5835 3.91676C17.1306 5.46394 17.9998 7.56236 17.9998 9.75039Z" fill="black"/>
</g>
<defs>
<clipPath id="clip0_372_6">
<rect width="24" height="24" fill="white"/>
</clipPath>
</defs>
</svg>
