<svg width="25" height="25" viewBox="0 0 25 25" fill="none" xmlns="http://www.w3.org/2000/svg">
<path d="M17.1876 15.625C16.6665 15.6242 16.1506 15.7284 15.6708 15.9314C15.1909 16.1344 14.7569 16.4321 14.3946 16.8067L9.89267 13.916C10.2441 13.0047 10.2441 11.9953 9.89267 11.084L14.3946 8.19337C15.0279 8.84108 15.8667 9.24853 16.7673 9.34599C17.668 9.44345 18.5745 9.22485 19.3317 8.72762C20.0889 8.23039 20.6498 7.48543 20.9183 6.62025C21.1868 5.75508 21.1463 4.82347 20.8036 3.98489C20.461 3.1463 19.8375 2.45288 19.04 2.0233C18.2424 1.59372 17.3203 1.45469 16.4316 1.63001C15.5428 1.80533 14.7426 2.2841 14.168 2.98437C13.5933 3.68464 13.2799 4.56287 13.2813 5.46876C13.2829 5.95282 13.3722 6.43259 13.545 6.88478L9.04306 9.7754C8.50105 9.21856 7.80527 8.83603 7.04471 8.67673C6.28414 8.51742 5.49334 8.58858 4.77342 8.8811C4.05351 9.17362 3.4372 9.67421 3.00331 10.3189C2.56941 10.9635 2.33765 11.7229 2.33765 12.5C2.33765 13.2771 2.56941 14.0365 3.00331 14.6812C3.4372 15.3258 4.05351 15.8264 4.77342 16.1189C5.49334 16.4114 6.28414 16.4826 7.04471 16.3233C7.80527 16.164 8.50105 15.7815 9.04306 15.2246L13.545 18.1152C13.3722 18.5674 13.2829 19.0472 13.2813 19.5313C13.2813 20.3038 13.5104 21.0591 13.9397 21.7015C14.3689 22.3438 14.979 22.8445 15.6927 23.1402C16.4065 23.4358 17.1919 23.5132 17.9497 23.3625C18.7074 23.2117 19.4034 22.8397 19.9497 22.2934C20.496 21.7471 20.8681 21.0511 21.0188 20.2933C21.1695 19.5356 21.0921 18.7502 20.7965 18.0364C20.5008 17.3226 20.0002 16.7126 19.3578 16.2833C18.7154 15.8541 17.9602 15.625 17.1876 15.625ZM17.1876 3.12501C17.6511 3.12501 18.1043 3.26247 18.4897 3.52C18.8751 3.77754 19.1755 4.14358 19.3529 4.57185C19.5303 5.00011 19.5767 5.47136 19.4863 5.926C19.3959 6.38065 19.1726 6.79826 18.8449 7.12604C18.5171 7.45382 18.0995 7.67704 17.6448 7.76748C17.1902 7.85791 16.7189 7.8115 16.2907 7.6341C15.8624 7.45671 15.4964 7.15631 15.2388 6.77088C14.9813 6.38545 14.8438 5.93231 14.8438 5.46876C14.8464 4.84795 15.0942 4.2533 15.5331 3.81432C15.9721 3.37534 16.5668 3.12758 17.1876 3.12501ZM6.25009 14.8438C5.78654 14.8438 5.3334 14.7063 4.94797 14.4488C4.56254 14.1912 4.26214 13.8252 4.08474 13.3969C3.90735 12.9687 3.86094 12.4974 3.95137 12.0428C4.04181 11.5881 4.26503 11.1705 4.59281 10.8427C4.92058 10.5149 5.3382 10.2917 5.79284 10.2013C6.24749 10.1109 6.71874 10.1573 7.147 10.3347C7.57527 10.5121 7.94131 10.8125 8.19884 11.1979C8.45638 11.5833 8.59384 12.0365 8.59384 12.5C8.59127 13.1208 8.34351 13.7155 7.90453 14.1545C7.46555 14.5934 6.8709 14.8412 6.25009 14.8438ZM17.1876 21.875C16.724 21.875 16.2709 21.7376 15.8855 21.48C15.5 21.2225 15.1996 20.8564 15.0222 20.4282C14.8449 19.9999 14.7984 19.5287 14.8889 19.074C14.9793 18.6194 15.2025 18.2018 15.5303 17.874C15.8581 17.5462 16.2757 17.323 16.7303 17.2325C17.185 17.1421 17.6562 17.1885 18.0845 17.3659C18.5128 17.5433 18.8788 17.8437 19.1363 18.2291C19.3939 18.6146 19.5313 19.0677 19.5313 19.5313C19.5288 20.1521 19.281 20.7467 18.842 21.1857C18.403 21.6247 17.8084 21.8724 17.1876 21.875Z" fill="white"/>
</svg>
