<svg width="25" height="25" viewBox="0 0 25 25" fill="none" xmlns="http://www.w3.org/2000/svg">
<path d="M6.25001 20.8333C5.95487 20.8333 5.7073 20.7333 5.5073 20.5333C5.308 20.334 5.20834 20.0868 5.20834 19.7917C5.20834 19.4965 5.308 19.2493 5.5073 19.05C5.7073 18.85 5.95487 18.75 6.25001 18.75H18.75C19.0452 18.75 19.2924 18.85 19.4917 19.05C19.6917 19.2493 19.7917 19.4965 19.7917 19.7917C19.7917 20.0868 19.6917 20.334 19.4917 20.5333C19.2924 20.7333 19.0452 20.8333 18.75 20.8333H6.25001ZM9.94793 16.224C9.80904 16.224 9.67883 16.2021 9.5573 16.1583C9.43577 16.1153 9.32293 16.0417 9.21876 15.9375L4.79168 11.5104C4.6007 11.3194 4.50522 11.0677 4.50522 10.7552C4.50522 10.4427 4.6007 10.191 4.79168 10C4.98265 9.80903 5.22571 9.71354 5.52084 9.71354C5.81598 9.71354 6.05904 9.80903 6.25001 10L9.94793 13.6979L18.75 4.89583C18.941 4.70486 19.1886 4.60938 19.4927 4.60938C19.7962 4.60938 20.0434 4.70486 20.2344 4.89583C20.4254 5.08681 20.5208 5.33403 20.5208 5.6375C20.5208 5.94167 20.4254 6.18924 20.2344 6.38021L10.6771 15.9375C10.5729 16.0417 10.4601 16.1153 10.3386 16.1583C10.217 16.2021 10.0868 16.224 9.94793 16.224Z" fill="black"/>
</svg>
