<svg width="35" height="35" viewBox="0 0 35 35" fill="none" xmlns="http://www.w3.org/2000/svg">
<path d="M20.4167 4.76725C20.4167 3.74496 19.5883 2.91663 18.566 2.91663H16.4354C15.4117 2.91663 14.5833 3.74496 14.5833 4.76725C14.5833 5.61017 14.0058 6.3335 13.2198 6.64267C13.0958 6.69225 12.9719 6.74475 12.8508 6.79725C12.0764 7.13267 11.1562 7.03058 10.5583 6.43413C10.2113 6.08735 9.74079 5.89255 9.2502 5.89255C8.75961 5.89255 8.28909 6.08735 7.94207 6.43413L6.43416 7.94204C6.08738 8.28906 5.89259 8.75958 5.89259 9.25017C5.89259 9.74076 6.08738 10.2113 6.43416 10.5583C7.03207 11.1562 7.13416 12.075 6.79582 12.8508C6.74266 12.9729 6.69162 13.0959 6.6427 13.2197C6.33353 14.0058 5.6102 14.5833 4.76728 14.5833C3.74499 14.5833 2.91666 15.4116 2.91666 16.4339V18.566C2.91666 19.5883 3.74499 20.4166 4.76728 20.4166C5.6102 20.4166 6.33353 20.9941 6.6427 21.7802C6.69228 21.9041 6.74478 22.0281 6.79582 22.1491C7.1327 22.9235 7.03061 23.8437 6.43416 24.4416C6.08738 24.7886 5.89259 25.2592 5.89259 25.7497C5.89259 26.2403 6.08738 26.7109 6.43416 27.0579L7.94207 28.5658C8.28909 28.9126 8.75961 29.1074 9.2502 29.1074C9.74079 29.1074 10.2113 28.9126 10.5583 28.5658C11.1562 27.9679 12.075 27.8658 12.8508 28.2027C12.9719 28.2566 13.0958 28.3077 13.2198 28.3572C14.0058 28.6664 14.5833 29.3898 14.5833 30.2327C14.5833 31.255 15.4117 32.0833 16.4339 32.0833H18.566C19.5883 32.0833 20.4167 31.255 20.4167 30.2327C20.4167 29.3898 20.9942 28.6664 21.7802 28.3558C21.9042 28.3077 22.0281 28.2566 22.1492 28.2041C22.9235 27.8658 23.8437 27.9693 24.4402 28.5658C24.6121 28.7377 24.8161 28.8741 25.0407 28.9671C25.2653 29.0602 25.506 29.1081 25.7491 29.1081C25.9921 29.1081 26.2329 29.0602 26.4574 28.9671C26.682 28.8741 26.8861 28.7377 27.0579 28.5658L28.5658 27.0579C28.9126 26.7109 29.1074 26.2403 29.1074 25.7497C29.1074 25.2592 28.9126 24.7886 28.5658 24.4416C27.9679 23.8437 27.8658 22.925 28.2027 22.1491C28.2567 22.0281 28.3077 21.9041 28.3573 21.7802C28.6664 20.9941 29.3898 20.4166 30.2327 20.4166C31.255 20.4166 32.0833 19.5883 32.0833 18.566V16.4354C32.0833 15.4131 31.255 14.5848 30.2327 14.5848C29.3898 14.5848 28.6664 14.0073 28.3558 13.2212C28.307 13.0973 28.2559 12.9743 28.2027 12.8523C27.8673 12.0779 27.9694 11.1577 28.5658 10.5598C28.9126 10.2127 29.1074 9.74221 29.1074 9.25163C29.1074 8.76104 28.9126 8.29052 28.5658 7.9435L27.0579 6.43558C26.7109 6.08881 26.2404 5.89401 25.7498 5.89401C25.2592 5.89401 24.7887 6.08881 24.4417 6.43558C23.8437 7.0335 22.925 7.13558 22.1492 6.79871C22.0271 6.74505 21.9041 6.69352 21.7802 6.64413C20.9942 6.3335 20.4167 5.61017 20.4167 4.76871V4.76725Z" stroke="black" stroke-width="2"/>
<path d="M23.3333 17.5C23.3333 19.0471 22.7187 20.5308 21.6248 21.6247C20.5308 22.7187 19.0471 23.3333 17.5 23.3333C15.9529 23.3333 14.4692 22.7187 13.3752 21.6247C12.2812 20.5308 11.6667 19.0471 11.6667 17.5C11.6667 15.9529 12.2812 14.4691 13.3752 13.3752C14.4692 12.2812 15.9529 11.6666 17.5 11.6666C19.0471 11.6666 20.5308 12.2812 21.6248 13.3752C22.7187 14.4691 23.3333 15.9529 23.3333 17.5V17.5Z" stroke="black" stroke-width="2"/>
</svg>
