<svg width="35" height="35" viewBox="0 0 35 35" fill="none" xmlns="http://www.w3.org/2000/svg">
<path d="M32.1061 14.7965L18.5307 2.30713C18.0894 1.90111 17.5082 1.68138 16.9087 1.69386C16.3091 1.70635 15.7376 1.95008 15.3136 2.37412L2.82823 14.8596L2.1875 15.5002V33.9063H14.2188V22.4219H20.7812V33.9063H32.8125V15.4464L32.1061 14.7965ZM16.9557 3.8809C16.975 3.8809 16.9631 3.88507 16.9548 3.8932C16.9463 3.88507 16.9364 3.8809 16.9557 3.8809ZM30.625 31.7188H22.9688V22.4219C22.9688 21.8418 22.7383 21.2854 22.328 20.8751C21.9178 20.4649 21.3614 20.2344 20.7812 20.2344H14.2188C13.6386 20.2344 13.0822 20.4649 12.672 20.8751C12.2617 21.2854 12.0312 21.8418 12.0312 22.4219V31.7188H4.375V16.4063L16.9557 3.92089C16.9566 3.92007 16.9567 3.91932 16.9574 3.9185L30.625 16.4063V31.7188Z" fill="black"/>
</svg>
