<svg width="428" height="98" viewBox="0 0 428 98" fill="none" xmlns="http://www.w3.org/2000/svg">
<rect x="15" y="11" width="398" height="74" rx="20" fill="#E9FBFF"/>
<path d="M363 48.5C366.59 48.5 369.5 45.5899 369.5 42C369.5 38.4101 366.59 35.5 363 35.5C359.41 35.5 356.5 38.4101 356.5 42C356.5 45.5899 359.41 48.5 363 48.5Z" stroke="black" stroke-width="2.25" stroke-linecap="round" stroke-linejoin="round"/>
<path d="M352.5 58.5C352.5 53.5 356.5 48.5 363 48.5C369.5 48.5 373.5 53.5 373.5 58.5" stroke="black" stroke-width="2.25" stroke-linecap="round" stroke-linejoin="round"/>
<path d="M292.417 34.7674C292.417 33.7451 291.588 32.9167 290.566 32.9167H288.435C287.412 32.9167 286.583 33.7451 286.583 34.7674C286.583 35.6103 286.006 36.3336 285.22 36.6428C285.096 36.6924 284.972 36.7449 284.851 36.7974C284.076 37.1328 283.156 37.0307 282.558 36.4342C282.211 36.0875 281.741 35.8927 281.25 35.8927C280.76 35.8927 280.289 36.0875 279.942 36.4342L278.434 37.9422C278.087 38.2892 277.893 38.7597 277.893 39.2503C277.893 39.7409 278.087 40.2114 278.434 40.5584C279.032 41.1563 279.134 42.0751 278.796 42.8509C278.743 42.973 278.692 43.096 278.643 43.2199C278.334 44.0059 277.61 44.5834 276.767 44.5834C275.745 44.5834 274.917 45.4117 274.917 46.434V48.5661C274.917 49.5884 275.745 50.4167 276.767 50.4167C277.61 50.4167 278.334 50.9942 278.643 51.7803C278.692 51.9042 278.745 52.0282 278.796 52.1492C279.133 52.9236 279.031 53.8438 278.434 54.4417C278.087 54.7888 277.893 55.2593 277.893 55.7499C277.893 56.2405 278.087 56.711 278.434 57.058L279.942 58.5659C280.289 58.9127 280.76 59.1075 281.25 59.1075C281.741 59.1075 282.211 58.9127 282.558 58.5659C283.156 57.968 284.075 57.8659 284.851 58.2028C284.972 58.2567 285.096 58.3078 285.22 58.3574C286.006 58.6665 286.583 59.3899 286.583 60.2328C286.583 61.2551 287.412 62.0834 288.434 62.0834H290.566C291.588 62.0834 292.417 61.2551 292.417 60.2328C292.417 59.3899 292.994 58.6665 293.78 58.3559C293.904 58.3078 294.028 58.2567 294.149 58.2042C294.924 57.8659 295.844 57.9695 296.44 58.5659C296.612 58.7378 296.816 58.8742 297.041 58.9673C297.265 59.0603 297.506 59.1082 297.749 59.1082C297.992 59.1082 298.233 59.0603 298.457 58.9673C298.682 58.8742 298.886 58.7378 299.058 58.5659L300.566 57.058C300.913 56.711 301.107 56.2405 301.107 55.7499C301.107 55.2593 300.913 54.7888 300.566 54.4417C299.968 53.8438 299.866 52.9251 300.203 52.1492C300.257 52.0282 300.308 51.9042 300.357 51.7803C300.666 50.9942 301.39 50.4167 302.233 50.4167C303.255 50.4167 304.083 49.5884 304.083 48.5661V46.4355C304.083 45.4132 303.255 44.5849 302.233 44.5849C301.39 44.5849 300.666 44.0074 300.356 43.2213C300.307 43.0975 300.256 42.9744 300.203 42.8524C299.867 42.078 299.969 41.1578 300.566 40.5599C300.913 40.2129 301.107 39.7423 301.107 39.2517C301.107 38.7612 300.913 38.2906 300.566 37.9436L299.058 36.4357C298.711 36.0889 298.24 35.8941 297.75 35.8941C297.259 35.8941 296.789 36.0889 296.442 36.4357C295.844 37.0336 294.925 37.1357 294.149 36.7988C294.027 36.7452 293.904 36.6936 293.78 36.6442C292.994 36.3336 292.417 35.6103 292.417 34.7688V34.7674Z" stroke="black" stroke-width="2"/>
<path d="M295.333 47.5001C295.333 49.0472 294.719 50.5309 293.625 51.6249C292.531 52.7188 291.047 53.3334 289.5 53.3334C287.953 53.3334 286.469 52.7188 285.375 51.6249C284.281 50.5309 283.667 49.0472 283.667 47.5001C283.667 45.953 284.281 44.4693 285.375 43.3753C286.469 42.2813 287.953 41.6667 289.5 41.6667C291.047 41.6667 292.531 42.2813 293.625 43.3753C294.719 44.4693 295.333 45.953 295.333 47.5001V47.5001Z" stroke="black" stroke-width="2"/>
<path d="M229.106 43.7965L215.531 31.3071C215.089 30.9011 214.508 30.6814 213.909 30.6939C213.309 30.7063 212.738 30.9501 212.314 31.3741L199.828 43.8596L199.188 44.5002V62.9063H211.219V51.4219H217.781V62.9063H229.812V44.4464L229.106 43.7965ZM213.956 32.8809C213.975 32.8809 213.963 32.8851 213.955 32.8932C213.946 32.8851 213.936 32.8809 213.956 32.8809ZM227.625 60.7188H219.969V51.4219C219.969 50.8418 219.738 50.2854 219.328 49.8751C218.918 49.4649 218.361 49.2344 217.781 49.2344H211.219C210.639 49.2344 210.082 49.4649 209.672 49.8751C209.262 50.2854 209.031 50.8418 209.031 51.4219V60.7188H201.375V45.4063L213.956 32.9209C213.957 32.9201 213.957 32.9193 213.957 32.9185L227.625 45.4063V60.7188Z" fill="black"/>
<path d="M139.5 62.0834C147.554 62.0834 154.083 55.5542 154.083 47.5001C154.083 39.4459 147.554 32.9167 139.5 32.9167C131.446 32.9167 124.917 39.4459 124.917 47.5001C124.917 55.5542 131.446 62.0834 139.5 62.0834Z" stroke="black" stroke-width="2" stroke-linecap="round" stroke-linejoin="round"/>
<path d="M143.875 53.3333L140.355 49.8129C139.808 49.2661 139.5 48.5243 139.5 47.7508V38.75" stroke="black" stroke-width="2" stroke-linecap="round" stroke-linejoin="round"/>
<path d="M78.5478 39.6934C78.0897 38.6326 77.4291 37.6713 76.603 36.8633C75.7763 36.0529 74.8016 35.4089 73.7319 34.9663C72.6227 34.5056 71.433 34.2697 70.2319 34.2725C68.5469 34.2725 66.9028 34.7339 65.4741 35.6055C65.1323 35.814 64.8076 36.043 64.5 36.2925C64.1924 36.043 63.8677 35.814 63.5259 35.6055C62.0972 34.7339 60.4531 34.2725 58.7681 34.2725C57.5547 34.2725 56.3789 34.5049 55.2681 34.9663C54.1948 35.4107 53.2275 36.0498 52.397 36.8633C51.5698 37.6704 50.9091 38.6319 50.4521 39.6934C49.9771 40.7974 49.7344 41.9698 49.7344 43.1763C49.7344 44.3145 49.9668 45.5005 50.4282 46.7071C50.8145 47.7154 51.3682 48.7613 52.0757 49.8174C53.1968 51.4888 54.7383 53.232 56.6523 54.9991C59.8242 57.9282 62.9653 59.9517 63.0986 60.0337L63.9087 60.5532C64.2676 60.7823 64.729 60.7823 65.0879 60.5532L65.8979 60.0337C66.0312 59.9483 69.1689 57.9282 72.3442 54.9991C74.2583 53.232 75.7998 51.4888 76.9209 49.8174C77.6284 48.7613 78.1855 47.7154 78.5684 46.7071C79.0298 45.5005 79.2622 44.3145 79.2622 43.1763C79.2656 41.9698 79.0229 40.7974 78.5478 39.6934ZM64.5 57.8496C64.5 57.8496 52.332 50.0532 52.332 43.1763C52.332 39.6934 55.2134 36.8701 58.7681 36.8701C61.2666 36.8701 63.4336 38.2647 64.5 40.3018C65.5664 38.2647 67.7334 36.8701 70.2319 36.8701C73.7866 36.8701 76.668 39.6934 76.668 43.1763C76.668 50.0532 64.5 57.8496 64.5 57.8496Z" fill="black"/>
</svg>
