<svg width="35" height="35" viewBox="0 0 35 35" fill="none" xmlns="http://www.w3.org/2000/svg">
<path d="M32.1061 14.7963L18.5307 2.30701C18.0894 1.90099 17.5082 1.68126 16.9087 1.69374C16.3091 1.70623 15.7376 1.94996 15.3136 2.374L2.82823 14.8594L2.1875 15.5001V33.9062H14.2188V22.4218H20.7812V33.9062H32.8125V15.4463L32.1061 14.7963ZM16.9557 3.88078C16.975 3.88078 16.9631 3.88495 16.9548 3.89308C16.9463 3.88495 16.9364 3.88078 16.9557 3.88078ZM30.625 31.7187H22.9688V22.4218C22.9688 21.8417 22.7383 21.2853 22.328 20.875C21.9178 20.4648 21.3614 20.2343 20.7812 20.2343H14.2188C13.6386 20.2343 13.0822 20.4648 12.672 20.875C12.2617 21.2853 12.0312 21.8417 12.0312 22.4218V31.7187H4.375V16.4062L16.9557 3.92077C16.9566 3.91995 16.9567 3.91919 16.9574 3.91837L30.625 16.4062V31.7187Z" fill="#6F2FF4"/>
</svg>
