<svg width="21" height="21" viewBox="0 0 21 21" fill="none" xmlns="http://www.w3.org/2000/svg">
<path d="M2.52 6.23017C2.41814 6.33177 2.33733 6.45246 2.28219 6.58534C2.22705 6.71822 2.19867 6.86067 2.19867 7.00454C2.19867 7.14841 2.22705 7.29086 2.28219 7.42374C2.33733 7.55662 2.41814 7.67732 2.52 7.77892L9.87875 15.1377C9.9597 15.2188 10.0559 15.2831 10.1617 15.327C10.2676 15.371 10.381 15.3936 10.4956 15.3936C10.6102 15.3936 10.7237 15.371 10.8295 15.327C10.9354 15.2831 11.0315 15.2188 11.1125 15.1377L18.4713 7.77892C18.9 7.35017 18.9 6.65892 18.4713 6.23017C18.0425 5.80142 17.3512 5.80142 16.9225 6.23017L10.5 12.6527L4.06875 6.22142C3.64 5.80142 2.94875 5.80142 2.52 6.23017Z" fill="#696969"/>
</svg>
