<svg width="30" height="30" viewBox="0 0 30 30" fill="none" xmlns="http://www.w3.org/2000/svg">
<path d="M15.1172 1.28259C15.0879 1.28259 15.0469 1.28259 15.0117 1.28962C14.7422 1.33943 14.4199 1.58845 14.209 2.1574C13.9863 2.72576 13.9395 3.53611 14.1328 4.40388C14.332 5.26111 14.7422 5.99998 15.1992 6.45115C15.6445 6.90232 16.0488 7.02537 16.3184 6.97849C16.5996 6.93748 16.9102 6.67966 17.1211 6.11716C17.3438 5.55232 17.4023 4.73084 17.2031 3.87009C16.998 3.00291 16.5938 2.27107 16.1367 1.82283C15.75 1.42439 15.3926 1.28259 15.1172 1.28259ZM21.8789 8.87107C21.2344 8.88865 20.4199 9.05857 19.6289 9.39255C18.7148 9.79099 18.0117 10.3242 17.625 10.8281C17.2383 11.3144 17.2031 11.6836 17.3262 11.9004C17.4551 12.1172 17.8125 12.3222 18.498 12.3515C19.1836 12.3926 20.1094 12.2226 21.0176 11.8359C21.9258 11.4433 22.6406 10.9043 23.0273 10.4121C23.4141 9.92576 23.4434 9.5449 23.3203 9.3281C23.1973 9.10544 22.834 8.91209 22.1484 8.88865C22.0547 8.87107 21.9727 8.87107 21.8789 8.87107ZM13.8926 14.3144C13.5059 14.3203 13.1543 14.3672 12.8379 14.4492C12.1465 14.625 11.748 14.9414 11.6191 15.3222C11.4727 15.7031 11.6191 16.1601 12.0762 16.6523C12.5566 17.1328 13.3477 17.5957 14.332 17.8535C15.3105 18.1113 16.2539 18.1054 16.957 17.9179C17.666 17.7363 18.0645 17.414 18.1934 17.039C18.3281 16.6582 18.1934 16.207 17.7188 15.709C17.2559 15.2285 16.4648 14.7656 15.4805 14.5136C14.9238 14.3672 14.3789 14.3086 13.8926 14.3144ZM23.3086 17.7187L19.6875 19.4355C19.9336 19.4472 20.5488 19.4648 20.5488 19.4648L20.9355 19.9746L24.1406 18.3047L23.3086 17.7187ZM20.1152 17.7246L16.752 19.3183C17.0742 19.3359 17.8359 19.3476 18.1406 19.3652L21.0586 17.9824L20.1152 17.7246ZM25.541 18.3574L21.4102 20.5488L22.2598 21.6445L26.625 19.0312L25.541 18.3574ZM9.20508 18.8906C9.02766 18.8903 8.85076 18.9099 8.67773 18.9492C4.48828 19.916 2.01562 19.998 1.2832 19.998H1.05469V26.2968C1.05469 26.2968 1.73438 26.1972 2.86523 26.1914C5.05078 26.1914 8.90039 26.5664 12.6504 28.7578C12.8496 28.8808 13.2773 28.9277 13.8105 28.9277C15.2344 28.9277 17.3965 28.5879 17.8945 28.4004C22.9102 26.5195 28.9453 21.3574 28.9453 21.3574L27.041 19.6933C27.041 19.6933 22.3652 22.6758 21.7734 22.9629C16.4355 25.582 12.1113 23.9472 12.1113 23.9472C12.1113 23.9472 19.1367 24.123 21.3926 22.3476L20.0684 20.3554C20.0684 20.3554 15.2168 20.2207 13.4883 19.9922C12.5859 19.875 10.6348 18.8906 9.20508 18.8906Z" fill="black"/>
</svg>
