<svg width="30" height="30" viewBox="0 0 30 30" fill="none" xmlns="http://www.w3.org/2000/svg">
<path d="M18.75 1.40625H0.9375V19.2188H11.25V29.0625H29.0625V11.25H18.75V1.40625ZM8.68975 5.625L5.74764 14.0215H7.73438L8.21285 12.6562H11.25V17.3438H2.8125V3.28125H16.875V11.25H12.9687L10.998 5.625H8.68975ZM10.8177 10.7812H8.8698L9.84375 8.00168L10.8177 10.7812ZM27.1875 13.125V27.1875H13.125V13.125H27.1875Z" fill="black"/>
<path d="M18.5995 21.5906C18.7789 21.8786 18.9763 22.155 19.1907 22.418C18.511 22.7845 17.7391 22.9681 16.875 22.9688V24.8438C18.2895 24.8438 19.5533 24.4683 20.625 23.7408C21.6967 24.4683 22.9605 24.8438 24.375 24.8438V22.9688C23.5127 22.9688 22.7408 22.785 22.0594 22.4176C22.2737 22.1547 22.4712 21.8785 22.6505 21.5906C23.1909 20.7121 23.5883 19.7532 23.8279 18.75H24.8438V16.875H21.5625V15.4688H19.6875V16.875H16.4062V18.75H17.4221C17.6617 19.7532 18.0591 20.7121 18.5995 21.5906ZM21.8865 18.75C21.6925 19.3989 21.4148 20.0198 21.0604 20.5969C20.9279 20.8097 20.7825 21.0141 20.625 21.2091C20.4789 21.0285 20.3434 20.8397 20.2189 20.6436C19.8501 20.0536 19.5623 19.4167 19.3632 18.75H21.8865Z" fill="black"/>
</svg>
