<svg width="428" height="98" viewBox="0 0 428 98" fill="none" xmlns="http://www.w3.org/2000/svg">
<rect x="15" y="11" width="398" height="74" rx="20" fill="#E9FBFF"/>
<path d="M363 48.5C366.59 48.5 369.5 45.5899 369.5 42C369.5 38.4101 366.59 35.5 363 35.5C359.41 35.5 356.5 38.4101 356.5 42C356.5 45.5899 359.41 48.5 363 48.5Z" stroke="black" stroke-width="2.25" stroke-linecap="round" stroke-linejoin="round"/>
<path d="M352.5 58.5C352.5 53.5 356.5 48.5 363 48.5C369.5 48.5 373.5 53.5 373.5 58.5" stroke="black" stroke-width="2.25" stroke-linecap="round" stroke-linejoin="round"/>
<path d="M269 81H311" stroke="#6F2FF4" stroke-width="5" stroke-linecap="round"/>
<path d="M292.417 34.7673C292.417 33.745 291.588 32.9166 290.566 32.9166H288.435C287.412 32.9166 286.583 33.745 286.583 34.7673C286.583 35.6102 286.006 36.3335 285.22 36.6427C285.096 36.6923 284.972 36.7448 284.851 36.7973C284.076 37.1327 283.156 37.0306 282.558 36.4341C282.211 36.0874 281.741 35.8926 281.25 35.8926C280.76 35.8926 280.289 36.0874 279.942 36.4341L278.434 37.942C278.087 38.2891 277.893 38.7596 277.893 39.2502C277.893 39.7408 278.087 40.2113 278.434 40.5583C279.032 41.1562 279.134 42.075 278.796 42.8508C278.743 42.9729 278.692 43.0959 278.643 43.2197C278.334 44.0058 277.61 44.5833 276.767 44.5833C275.745 44.5833 274.917 45.4116 274.917 46.4339V48.566C274.917 49.5883 275.745 50.4166 276.767 50.4166C277.61 50.4166 278.334 50.9941 278.643 51.7802C278.692 51.9041 278.745 52.0281 278.796 52.1491C279.133 52.9235 279.031 53.8437 278.434 54.4416C278.087 54.7886 277.893 55.2592 277.893 55.7497C277.893 56.2403 278.087 56.7109 278.434 57.0579L279.942 58.5658C280.289 58.9126 280.76 59.1074 281.25 59.1074C281.741 59.1074 282.211 58.9126 282.558 58.5658C283.156 57.9679 284.075 57.8658 284.851 58.2027C284.972 58.2566 285.096 58.3077 285.22 58.3572C286.006 58.6664 286.583 59.3898 286.583 60.2327C286.583 61.255 287.412 62.0833 288.434 62.0833H290.566C291.588 62.0833 292.417 61.255 292.417 60.2327C292.417 59.3898 292.994 58.6664 293.78 58.3558C293.904 58.3077 294.028 58.2566 294.149 58.2041C294.923 57.8658 295.844 57.9693 296.44 58.5658C296.612 58.7377 296.816 58.8741 297.041 58.9671C297.265 59.0602 297.506 59.1081 297.749 59.1081C297.992 59.1081 298.233 59.0602 298.457 58.9671C298.682 58.8741 298.886 58.7377 299.058 58.5658L300.566 57.0579C300.913 56.7109 301.107 56.2403 301.107 55.7497C301.107 55.2592 300.913 54.7886 300.566 54.4416C299.968 53.8437 299.866 52.925 300.203 52.1491C300.257 52.0281 300.308 51.9041 300.357 51.7802C300.666 50.9941 301.39 50.4166 302.233 50.4166C303.255 50.4166 304.083 49.5883 304.083 48.566V46.4354C304.083 45.4131 303.255 44.5848 302.233 44.5848C301.39 44.5848 300.666 44.0073 300.356 43.2212C300.307 43.0973 300.256 42.9743 300.203 42.8523C299.867 42.0779 299.969 41.1577 300.566 40.5598C300.913 40.2127 301.107 39.7422 301.107 39.2516C301.107 38.761 300.913 38.2905 300.566 37.9435L299.058 36.4356C298.711 36.0888 298.24 35.894 297.75 35.894C297.259 35.894 296.789 36.0888 296.442 36.4356C295.844 37.0335 294.925 37.1356 294.149 36.7987C294.027 36.7451 293.904 36.6935 293.78 36.6441C292.994 36.3335 292.417 35.6102 292.417 34.7687V34.7673Z" stroke="#6F2FF4" stroke-width="2"/>
<path d="M295.333 47.5C295.333 49.0471 294.719 50.5308 293.625 51.6247C292.531 52.7187 291.047 53.3333 289.5 53.3333C287.953 53.3333 286.469 52.7187 285.375 51.6247C284.281 50.5308 283.667 49.0471 283.667 47.5C283.667 45.9529 284.281 44.4691 285.375 43.3752C286.469 42.2812 287.953 41.6666 289.5 41.6666C291.047 41.6666 292.531 42.2812 293.625 43.3752C294.719 44.4691 295.333 45.9529 295.333 47.5V47.5Z" stroke="#6F2FF4" stroke-width="2"/>
<path d="M229.106 43.7963L215.531 31.307C215.089 30.901 214.508 30.6813 213.909 30.6937C213.309 30.7062 212.738 30.95 212.314 31.374L199.828 43.8594L199.188 44.5001V62.9062H211.219V51.4218H217.781V62.9062H229.812V44.4463L229.106 43.7963ZM213.956 32.8808C213.975 32.8808 213.963 32.8849 213.955 32.8931C213.946 32.8849 213.936 32.8808 213.956 32.8808ZM227.625 60.7187H219.969V51.4218C219.969 50.8417 219.738 50.2853 219.328 49.875C218.918 49.4648 218.361 49.2343 217.781 49.2343H211.219C210.639 49.2343 210.082 49.4648 209.672 49.875C209.262 50.2853 209.031 50.8417 209.031 51.4218V60.7187H201.375V45.4062L213.956 32.9208C213.957 32.9199 213.957 32.9192 213.957 32.9184L227.625 45.4062V60.7187Z" fill="black"/>
<path d="M139.5 62.0833C147.554 62.0833 154.083 55.5541 154.083 47.5C154.083 39.4458 147.554 32.9166 139.5 32.9166C131.446 32.9166 124.917 39.4458 124.917 47.5C124.917 55.5541 131.446 62.0833 139.5 62.0833Z" stroke="black" stroke-width="2" stroke-linecap="round" stroke-linejoin="round"/>
<path d="M143.875 53.3333L140.355 49.8129C139.808 49.2661 139.5 48.5243 139.5 47.7508V38.75" stroke="black" stroke-width="2" stroke-linecap="round" stroke-linejoin="round"/>
<path d="M78.5478 39.6934C78.0897 38.6326 77.4291 37.6713 76.603 36.8633C75.7763 36.0529 74.8016 35.4089 73.7319 34.9663C72.6227 34.5056 71.433 34.2697 70.2319 34.2725C68.5469 34.2725 66.9028 34.7339 65.4741 35.6055C65.1323 35.814 64.8076 36.043 64.5 36.2925C64.1924 36.043 63.8677 35.814 63.5259 35.6055C62.0972 34.7339 60.4531 34.2725 58.7681 34.2725C57.5547 34.2725 56.3789 34.5049 55.2681 34.9663C54.1948 35.4107 53.2275 36.0498 52.397 36.8633C51.5698 37.6704 50.9091 38.6319 50.4521 39.6934C49.9771 40.7974 49.7344 41.9698 49.7344 43.1763C49.7344 44.3145 49.9668 45.5005 50.4282 46.7071C50.8145 47.7154 51.3682 48.7613 52.0757 49.8174C53.1968 51.4888 54.7383 53.232 56.6523 54.9991C59.8242 57.9282 62.9653 59.9517 63.0986 60.0337L63.9087 60.5532C64.2676 60.7823 64.729 60.7823 65.0879 60.5532L65.8979 60.0337C66.0312 59.9483 69.1689 57.9282 72.3442 54.9991C74.2583 53.232 75.7998 51.4888 76.9209 49.8174C77.6284 48.7613 78.1855 47.7154 78.5684 46.7071C79.0298 45.5005 79.2622 44.3145 79.2622 43.1763C79.2656 41.9698 79.0229 40.7974 78.5478 39.6934ZM64.5 57.8496C64.5 57.8496 52.332 50.0532 52.332 43.1763C52.332 39.6934 55.2134 36.8701 58.7681 36.8701C61.2666 36.8701 63.4336 38.2647 64.5 40.3018C65.5664 38.2647 67.7334 36.8701 70.2319 36.8701C73.7866 36.8701 76.668 39.6934 76.668 43.1763C76.668 50.0532 64.5 57.8496 64.5 57.8496Z" fill="black"/>
</svg>
